<svg width="163" height="96" viewBox="0 0 163 96" fill="none" xmlns="http://www.w3.org/2000/svg">
<path d="M19.043 47.2852C19.043 48.9909 18.8607 50.6185 18.4961 52.168C18.1445 53.7044 17.5716 55.0586 16.7773 56.2305C15.9961 57.3893 14.9805 58.3073 13.7305 58.9844C12.4935 59.6615 10.9961 60 9.23828 60H0.957031V34.5117H9.23828C10.9701 34.5117 12.4544 34.8633 13.6914 35.5664C14.9414 36.2565 15.957 37.1875 16.7383 38.3594C17.5326 39.5312 18.112 40.8854 18.4766 42.4219C18.8542 43.9583 19.043 45.5794 19.043 47.2852ZM16.3672 47.2852C16.3672 43.9518 15.7357 41.3737 14.4727 39.5508C13.2227 37.7148 11.4779 36.7969 9.23828 36.7969H3.63281V57.7148H9.23828C11.4779 57.7148 13.2227 56.8099 14.4727 55C15.7357 53.1901 16.3672 50.6185 16.3672 47.2852ZM21.7969 55.0781C21.7969 53.9323 22.0833 52.9753 22.6562 52.207C23.2292 51.4258 23.9779 50.8138 24.9023 50.3711C25.8398 49.9154 26.9076 49.5898 28.1055 49.3945C29.3164 49.1862 30.5469 49.082 31.7969 49.082C32.2786 49.082 32.7083 49.0885 33.0859 49.1016C33.4766 49.1146 33.8411 49.1341 34.1797 49.1602C34.5312 49.1862 34.8828 49.2188 35.2344 49.2578C35.5859 49.2969 35.9701 49.3424 36.3867 49.3945V48.0859C36.3867 47.2005 36.1914 46.4714 35.8008 45.8984C35.4232 45.3255 34.9544 44.8763 34.3945 44.5508C33.8346 44.2122 33.2487 43.9779 32.6367 43.8477C32.0247 43.7044 31.5039 43.6328 31.0742 43.6328C29.7201 43.6328 28.4701 43.8151 27.3242 44.1797C26.1784 44.5443 25.1107 45.0326 24.1211 45.6445L22.9102 43.6328C24.0039 42.9688 25.2279 42.4284 26.582 42.0117C27.9492 41.582 29.4466 41.3672 31.0742 41.3672C32.0638 41.3672 33.0339 41.4974 33.9844 41.7578C34.9479 42.0052 35.8073 42.3958 36.5625 42.9297C37.3307 43.4505 37.9427 44.1406 38.3984 45C38.8542 45.8594 39.082 46.888 39.082 48.0859V60H36.3867V56.9531C35.918 57.5391 35.3841 58.0534 34.7852 58.4961C34.1992 58.9388 33.5807 59.3034 32.9297 59.5898C32.2786 59.8633 31.6276 60.0716 30.9766 60.2148C30.3255 60.3711 29.707 60.4492 29.1211 60.4492C26.7122 60.4492 24.8893 59.987 23.6523 59.0625C22.4154 58.138 21.7969 56.8099 21.7969 55.0781ZM29.1211 58.1641C30.2409 58.1641 31.2435 58.0013 32.1289 57.6758C33.0273 57.3372 33.7891 56.9206 34.4141 56.4258C35.0391 55.931 35.5208 55.4036 35.8594 54.8438C36.2109 54.2839 36.3867 53.776 36.3867 53.3203V51.6016C35.5143 51.4714 34.6745 51.3997 33.8672 51.3867C33.0729 51.3737 32.3828 51.3672 31.7969 51.3672C30.8333 51.3672 29.9023 51.4323 29.0039 51.5625C28.1185 51.6927 27.3438 51.9076 26.6797 52.207C26.0156 52.4935 25.4818 52.8711 25.0781 53.3398C24.6745 53.8086 24.4727 54.388 24.4727 55.0781C24.4727 55.8464 24.8438 56.556 25.5859 57.207C26.3411 57.8451 27.5195 58.1641 29.1211 58.1641ZM62.0703 54.1992C61.862 56.1133 61.1068 57.6367 59.8047 58.7695C58.5156 59.8893 56.901 60.4492 54.9609 60.4492C53.8932 60.4492 52.9167 60.2734 52.0312 59.9219C51.1458 59.5703 50.3906 59.082 49.7656 58.457C49.1406 57.832 48.6523 57.0833 48.3008 56.2109C47.9622 55.3255 47.793 54.362 47.793 53.3203V44.082H43.6719V41.7969H47.793V34.5117H50.4688V41.7969H58.2227V44.082H50.4688V53.3203C50.4688 53.9844 50.5729 54.6094 50.7812 55.1953C51.0026 55.7812 51.3021 56.2956 51.6797 56.7383C52.0703 57.181 52.5391 57.5326 53.0859 57.793C53.6328 58.0404 54.2578 58.1641 54.9609 58.1641C56.2891 58.1641 57.3958 57.7539 58.2812 56.9336C59.1797 56.1003 59.694 55.026 59.8242 53.7109L62.0703 54.1992ZM68.1836 51.8359C68.3789 53.763 69.082 55.2995 70.293 56.4453C71.5039 57.5911 73.0794 58.1641 75.0195 58.1641C76.3867 58.1641 77.6042 57.8841 78.6719 57.3242C79.7396 56.7643 80.5404 56.0677 81.0742 55.2344L82.9492 56.5234C82.0378 57.7995 80.9505 58.776 79.6875 59.4531C78.4245 60.1172 76.8685 60.4492 75.0195 60.4492C73.6133 60.4492 72.3242 60.2148 71.1523 59.7461C69.9805 59.2773 68.9648 58.6263 68.1055 57.793C67.2591 56.9466 66.6016 55.944 66.1328 54.7852C65.6641 53.6263 65.4297 52.3372 65.4297 50.918C65.4297 49.5378 65.638 48.2682 66.0547 47.1094C66.4844 45.9375 67.0964 44.9284 67.8906 44.082C68.6979 43.2227 69.6745 42.5586 70.8203 42.0898C71.9661 41.6081 73.2487 41.3672 74.668 41.3672C76.2174 41.3672 77.5716 41.6276 78.7305 42.1484C79.8893 42.6693 80.8529 43.3919 81.6211 44.3164C82.4023 45.2279 82.9753 46.3216 83.3398 47.5977C83.7174 48.8737 83.9062 50.2865 83.9062 51.8359H68.1836ZM81.0742 49.5508C80.7747 47.5586 80.0521 46.0742 78.9062 45.0977C77.7604 44.1211 76.3477 43.6328 74.668 43.6328C73.8086 43.6328 73.0143 43.776 72.2852 44.0625C71.556 44.3359 70.9115 44.7331 70.3516 45.2539C69.7917 45.7747 69.3229 46.4062 68.9453 47.1484C68.5677 47.8776 68.3268 48.6784 68.2227 49.5508H81.0742ZM104.59 60H101.895V48.7695C101.895 47.1419 101.543 45.8789 100.84 44.9805C100.137 44.082 98.9974 43.6328 97.4219 43.6328C96.4323 43.6328 95.5339 43.8607 94.7266 44.3164C93.9323 44.7721 93.2552 45.3841 92.6953 46.1523C92.1354 46.9076 91.7057 47.7799 91.4062 48.7695C91.1198 49.7461 90.9766 50.7682 90.9766 51.8359V60H88.3008V41.7969H90.9766V46.3672C92.2656 43.0339 94.5638 41.3672 97.8711 41.3672C102.35 41.3672 104.59 43.8346 104.59 48.7695V60ZM127.578 54.1992C127.37 56.1133 126.615 57.6367 125.312 58.7695C124.023 59.8893 122.409 60.4492 120.469 60.4492C119.401 60.4492 118.424 60.2734 117.539 59.9219C116.654 59.5703 115.898 59.082 115.273 58.457C114.648 57.832 114.16 57.0833 113.809 56.2109C113.47 55.3255 113.301 54.362 113.301 53.3203V44.082H109.18V41.7969H113.301V34.5117H115.977V41.7969H123.73V44.082H115.977V53.3203C115.977 53.9844 116.081 54.6094 116.289 55.1953C116.51 55.7812 116.81 56.2956 117.188 56.7383C117.578 57.181 118.047 57.5326 118.594 57.793C119.141 58.0404 119.766 58.1641 120.469 58.1641C121.797 58.1641 122.904 57.7539 123.789 56.9336C124.688 56.1003 125.202 55.026 125.332 53.7109L127.578 54.1992Z" fill="black"/>
<line x1="67" y1="1.5" x2="163" y2="1.5" stroke="black" stroke-width="3"/>
<line x1="67" y1="94.5" x2="163" y2="94.5" stroke="black" stroke-width="3"/>
<line x1="161.5" y1="96" x2="161.5" stroke="black" stroke-width="3"/>
<line x1="68.5" y1="31" x2="68.5" stroke="black" stroke-width="3"/>
<line x1="68.5" y1="96" x2="68.5" y2="64" stroke="black" stroke-width="3"/>
</svg>
